<?xml version="1.0" encoding="UTF-8" standalone="no"?><svg xmlns="http://www.w3.org/2000/svg" xmlns:xlink="http://www.w3.org/1999/xlink" contentScriptType="application/ecmascript" contentStyleType="text/css" height="92px" preserveAspectRatio="none" style="width:207px;height:92px;" version="1.1" viewBox="0 0 207 92" width="207px" zoomAndPan="magnify"><defs><filter height="300%" id="f1omxktzghmlku" width="300%" x="-1" y="-1"><feGaussianBlur result="blurOut" stdDeviation="2.0"/><feColorMatrix in="blurOut" result="blurOut2" type="matrix" values="0 0 0 0 0 0 0 0 0 0 0 0 0 0 0 0 0 0 .4 0"/><feOffset dx="4.0" dy="4.0" in="blurOut2" result="blurOut3"/><feBlend in="SourceGraphic" in2="blurOut3" mode="normal"/></filter></defs><g><!--class Article--><rect fill="#FEFECE" filter="url(#f1omxktzghmlku)" height="73.6094" id="Article" style="stroke: #A80036; stroke-width: 1.5;" width="76" x="6" y="8"/><ellipse cx="23.25" cy="24" fill="#ADD1B2" rx="11" ry="11" style="stroke: #A80036; stroke-width: 1.0;"/><path d="M26.2188,29.6406 Q25.6406,29.9375 25,30.0781 Q24.3594,30.2344 23.6563,30.2344 Q21.1563,30.2344 19.8281,28.5938 Q18.5156,26.9375 18.5156,23.8125 Q18.5156,20.6875 19.8281,19.0313 Q21.1563,17.375 23.6563,17.375 Q24.3594,17.375 25,17.5313 Q25.6563,17.6875 26.2188,17.9844 L26.2188,20.7031 Q25.5938,20.125 25,19.8594 Q24.4063,19.5781 23.7813,19.5781 Q22.4375,19.5781 21.75,20.6563 Q21.0625,21.7188 21.0625,23.8125 Q21.0625,25.9063 21.75,26.9844 Q22.4375,28.0469 23.7813,28.0469 Q24.4063,28.0469 25,27.7813 Q25.5938,27.5 26.2188,26.9219 L26.2188,29.6406 Z "/><text fill="#000000" font-family="sans-serif" font-size="12" lengthAdjust="spacingAndGlyphs" textLength="39" x="37.75" y="28.1543">Article</text><line style="stroke: #A80036; stroke-width: 1.5;" x1="7" x2="81" y1="40" y2="40"/><rect fill="none" height="6" style="stroke: #C82930; stroke-width: 1.0;" width="6" x="14" y="48.9023"/><text fill="#000000" font-family="sans-serif" font-size="11" lengthAdjust="spacingAndGlyphs" textLength="21" x="26" y="54.2104">text</text><line style="stroke: #A80036; stroke-width: 1.5;" x1="7" x2="81" y1="60.8047" y2="60.8047"/><ellipse cx="17" cy="72.707" fill="#84BE84" rx="3" ry="3" style="stroke: #038048; stroke-width: 1.0;"/><text fill="#000000" font-family="sans-serif" font-size="11" lengthAdjust="spacingAndGlyphs" textLength="50" x="26" y="75.0151">getText()</text><path d="M117,17.5 L117,41 L82.06,45 L117,49 L117,72.8984 A0,0 0 0 0 117,72.8984 L195,72.8984 A0,0 0 0 0 195,72.8984 L195,27.5 L185,17.5 L117,17.5 A0,0 0 0 0 117,17.5 " fill="#FBFB77" filter="url(#f1omxktzghmlku)" style="stroke: #A80036; stroke-width: 1.0;"/><path d="M185,17.5 L185,27.5 L195,27.5 L185,17.5 " fill="#FBFB77" style="stroke: #A80036; stroke-width: 1.0;"/><text fill="#000000" font-family="sans-serif" font-size="13" lengthAdjust="spacingAndGlyphs" textLength="25" x="123" y="34.5669">Use</text><text fill="#000000" font-family="sans-serif" font-size="13" lengthAdjust="spacingAndGlyphs" textLength="49" x="127" y="49.6997">and not</text><text fill="#000000" font-family="sans-serif" font-size="13" lengthAdjust="spacingAndGlyphs" textLength="4" x="123" y="64.8325">.</text><!--
@startuml
class Article {
- text
+ getText()
}
note "Use \n and not \r\n." as N2
Article . N2
@enduml

PlantUML version 1.2018.13(Mon Nov 26 18:11:51 CET 2018)
(GPL source distribution)
Java Runtime: OpenJDK Runtime Environment
JVM: OpenJDK 64-Bit Server VM
Java Version: 1.8.0_392-8u392-ga-1~20.04-b08
Operating System: Linux
OS Version: 5.15.0-89-generic
Default Encoding: UTF-8
Language: en
Country: IE
--></g></svg>