<?xml version="1.0" encoding="UTF-8" standalone="no"?><svg xmlns="http://www.w3.org/2000/svg" xmlns:xlink="http://www.w3.org/1999/xlink" contentStyleType="text/css" height="94px" preserveAspectRatio="none" style="width:278px;height:94px;background:#FFFFFF;" version="1.1" viewBox="0 0 278 94" width="278px" zoomAndPan="magnify"><defs/><g><!--MD5=[d22815ff63be9cac9a63f8d1ea27d033]
class Article--><g id="elem_Article"><rect codeLine="1" fill="#F1F1F1" height="80.5938" id="Article" rx="2.5" ry="2.5" style="stroke:#181818;stroke-width:0.5;" width="89" x="7" y="7"/><ellipse cx="28.75" cy="23" fill="#ADD1B2" rx="11" ry="11" style="stroke:#181818;stroke-width:1.0;"/><path d="M31.7188,28.6406 Q31.1406,28.9375 30.5,29.0781 Q29.8594,29.2344 29.1563,29.2344 Q26.6563,29.2344 25.3281,27.5938 Q24.0156,25.9375 24.0156,22.8125 Q24.0156,19.6875 25.3281,18.0313 Q26.6563,16.375 29.1563,16.375 Q29.8594,16.375 30.5,16.5313 Q31.1563,16.6875 31.7188,16.9844 L31.7188,19.7031 Q31.0938,19.125 30.5,18.8594 Q29.9063,18.5781 29.2813,18.5781 Q27.9375,18.5781 27.25,19.6563 Q26.5625,20.7188 26.5625,22.8125 Q26.5625,24.9063 27.25,25.9844 Q27.9375,27.0469 29.2813,27.0469 Q29.9063,27.0469 30.5,26.7813 Q31.0938,26.5 31.7188,25.9219 L31.7188,28.6406 Z " fill="#000000"/><text fill="#000000" font-family="sans-serif" font-size="14" lengthAdjust="spacing" textLength="42" x="44.25" y="27.8467">Article</text><line style="stroke:#181818;stroke-width:0.5;" x1="8" x2="95" y1="39" y2="39"/><rect fill="none" height="6" style="stroke:#C82930;stroke-width:1.0;" width="6" x="15" y="49.6484"/><text fill="#000000" font-family="sans-serif" font-size="14" lengthAdjust="spacing" textLength="26" x="27" y="55.9951">text</text><line style="stroke:#181818;stroke-width:0.5;" x1="8" x2="95" y1="63.2969" y2="63.2969"/><ellipse cx="18" cy="76.9453" fill="#84BE84" rx="3" ry="3" style="stroke:#038048;stroke-width:1.0;"/><text fill="#000000" font-family="sans-serif" font-size="14" lengthAdjust="spacing" textLength="63" x="27" y="80.292">getText()</text></g><g id="elem_N2"><path d="M131.5,35 L131.5,43.5 L96.03,47.5 L131.5,51.5 L131.5,60.1328 A0,0 0 0 0 131.5,60.1328 L271.5,60.1328 A0,0 0 0 0 271.5,60.1328 L271.5,45 L261.5,35 L131.5,35 A0,0 0 0 0 131.5,35 " fill="#FEFFDD" style="stroke:#181818;stroke-width:0.5;"/><path d="M261.5,35 L261.5,45 L271.5,45 L261.5,35 " fill="#FEFFDD" style="stroke:#181818;stroke-width:0.5;"/><text fill="#000000" font-family="sans-serif" font-size="13" lengthAdjust="spacing" textLength="119" x="137.5" y="52.0669">Use \n and not \r\n</text></g><!--MD5=[c80298f77d4cbabf09a43b1a0989145a]
@startuml
class Article {
- text
+ getText()
}
note "Use \\n and not \\r\\n" as N2
Article . N2
@enduml

PlantUML version 1.2022.8(Sun Sep 25 11:00:33 CEST 2022)
(GPL source distribution)
Java Runtime: OpenJDK Runtime Environment
JVM: OpenJDK 64-Bit Server VM
Default Encoding: UTF-8
Language: en
Country: IE
--></g></svg>