<?xml version="1.0" encoding="UTF-8" standalone="no"?><svg xmlns="http://www.w3.org/2000/svg" xmlns:xlink="http://www.w3.org/1999/xlink" contentStyleType="text/css" height="94px" preserveAspectRatio="none" style="width:313px;height:94px;background:#FFFFFF;" version="1.1" viewBox="0 0 313 94" width="313px" zoomAndPan="magnify"><defs/><g><!--MD5=[ab8871ed637f40707b866ba6597734bc]
class ArrayList--><g id="elem_ArrayList"><rect codeLine="1" fill="#F1F1F1" height="80.5938" id="ArrayList" rx="2.5" ry="2.5" style="stroke:#181818;stroke-width:0.5;" width="118" x="7" y="7"/><ellipse cx="35.05" cy="23" fill="#ADD1B2" rx="11" ry="11" style="stroke:#181818;stroke-width:1.0;"/><path d="M38.0188,28.6406 Q37.4406,28.9375 36.8,29.0781 Q36.1594,29.2344 35.4563,29.2344 Q32.9563,29.2344 31.6281,27.5938 Q30.3156,25.9375 30.3156,22.8125 Q30.3156,19.6875 31.6281,18.0313 Q32.9563,16.375 35.4563,16.375 Q36.1594,16.375 36.8,16.5313 Q37.4563,16.6875 38.0188,16.9844 L38.0188,19.7031 Q37.3938,19.125 36.8,18.8594 Q36.2063,18.5781 35.5813,18.5781 Q34.2375,18.5781 33.55,19.6563 Q32.8625,20.7188 32.8625,22.8125 Q32.8625,24.9063 33.55,25.9844 Q34.2375,27.0469 35.5813,27.0469 Q36.2063,27.0469 36.8,26.7813 Q37.3938,26.5 38.0188,25.9219 L38.0188,28.6406 Z " fill="#000000"/><text fill="#000000" font-family="sans-serif" font-size="14" lengthAdjust="spacing" textLength="57" x="51.95" y="27.8467">ArrayList</text><line style="stroke:#181818;stroke-width:0.5;" x1="8" x2="124" y1="39" y2="39"/><rect fill="none" height="6" style="stroke:#C82930;stroke-width:1.0;" width="6" x="15" y="49.6484"/><text fill="#000000" font-family="sans-serif" font-size="14" lengthAdjust="spacing" textLength="92" x="27" y="55.9951">private image</text><line style="stroke:#181818;stroke-width:0.5;" x1="8" x2="124" y1="63.2969" y2="63.2969"/><ellipse cx="18" cy="76.9453" fill="#84BE84" rx="3" ry="3" style="stroke:#038048;stroke-width:1.0;"/><text fill="#000000" font-family="sans-serif" font-size="14" lengthAdjust="spacing" textLength="75" x="27" y="80.292">getImage()</text></g><g id="elem_N2"><path d="M160,35 L160,43.5 L125.04,47.5 L160,51.5 L160,60.1328 A0,0 0 0 0 160,60.1328 L306,60.1328 A0,0 0 0 0 306,60.1328 L306,45 L296,35 L160,35 A0,0 0 0 0 160,35 " fill="#FEFFDD" style="stroke:#181818;stroke-width:0.5;"/><path d="M296,35 L296,45 L306,45 L296,35 " fill="#FEFFDD" style="stroke:#181818;stroke-width:0.5;"/><text fill="#000000" font-family="sans-serif" font-size="13" lengthAdjust="spacing" textLength="81" x="166" y="52.0669">Located in c:</text><text fill="#000000" font-family="sans-serif" font-size="13" lengthAdjust="spacing" textLength="29" x="262" y="52.0669">emp</text></g><!--MD5=[29d0e6d09040801b81fc63821f61d0fd]
@startuml
class ArrayList {
- private image
+ getImage()
}
note "Located in c:\temp" as N2
ArrayList . N2
@enduml

PlantUML version 1.2022.8(Sun Sep 25 11:00:33 CEST 2022)
(GPL source distribution)
Java Runtime: OpenJDK Runtime Environment
JVM: OpenJDK 64-Bit Server VM
Default Encoding: UTF-8
Language: en
Country: IE
--></g></svg>